<svg>
	<symbol id="icon-search" viewBox="0 0 16 16" fill="none" xmlns="http://www.w3.org/2000/svg">
		<path d="M15.3846 15L11.3846 11M7.38464 13C4.07094 13 1.38464 10.3137 1.38464 7C1.38464 3.68629 4.07094 1 7.38464 1C10.6984 1 13.3846 3.68629 13.3846 7C13.3846 10.3137 10.6984 13 7.38464 13Z" stroke="#9B9B9B" stroke-width="1.5"/>
	</symbol>
	<symbol id="icon-bin" viewBox="0 0 24 24" fill="none" xmlns="http://www.w3.org/2000/svg">
		<path d="M9.6 6.5V5C9.6 4.44772 9.95817 4 10.4 4H13.6C14.0418 4 14.4 4.44772 14.4 5V6.5M6 7H18M7.2 7V17C7.2 17.5523 7.55817 18 8 18H16C16.4418 18 16.8 17.5523 16.8 17V7M12 10.5V15.5M9.6 12.5V15.5M14.4 12.5V15.5" stroke="black"/>
	</symbol>
	<symbol id="icon-floorplan" viewBox="0 0 21 14" fill="none" xmlns="http://www.w3.org/2000/svg">
		<path d="M13.0299 1.39999H18.0598V12.6H2.4111V1.39999H6.88216L10.2355 2.99999M9.11769 12.6V6.99999M6.32328 6.99999H11.9121M15.2654 6.99999H18.0598" stroke="#808080"/>
	</symbol>
	<symbol id="icon-car" viewBox="0 0 21 14" fill="none" xmlns="http://www.w3.org/2000/svg">
		<path d="M2.69388 8.86666H6.60606M17.0385 8.86666H13.1263M3.99794 6.06666H15.7345M18.9946 6.06358V11.6667C18.9946 12.1821 18.4108 12.6 17.6906 12.6H16.3865C15.6663 12.6 15.0824 12.1821 15.0824 11.6667V10.7333H4.64997V11.6667C4.64997 12.1821 4.06612 12.6 3.34591 12.6H2.04185C1.32164 12.6 0.737793 12.1821 0.737793 11.6667V6.06358L3.51018 2.75871C4.21733 1.91573 5.49046 1.39999 6.86425 1.39999H12.8682C14.2419 1.39999 15.5151 1.91573 16.2222 2.75871L18.9946 6.06358Z" stroke="#FF0D29"/>
	</symbol>
	<symbol id="icon-address" viewBox="0 0 19 13" fill="none" xmlns="http://www.w3.org/2000/svg">
		<path d="M9.7505 0C6.22945 0 3.36484 2.05024 3.36484 4.57031C3.36484 5.42176 3.69437 6.2527 4.31804 6.97359L9.38702 12.82C9.48412 12.932 9.65518 13 9.83916 13C9.84058 13 9.84196 13 9.84338 13C10.029 12.999 10.2004 12.9288 10.2957 12.8149L15.2355 6.91184C15.8247 6.20618 16.1362 5.3965 16.1362 4.57031C16.1362 2.05024 13.2716 0 9.7505 0ZM14.3221 6.52077L9.83111 11.8875L5.22261 6.57226C4.70349 5.97223 4.42202 5.27998 4.42202 4.57031C4.42202 2.47025 6.81629 0.756641 9.7505 0.756641C12.6847 0.756641 15.0754 2.47025 15.0754 4.57031C15.0754 5.25893 14.8125 5.93348 14.3221 6.52077Z" fill="#9B9B9B"/>
		<path d="M9.75051 2.28516C7.98998 2.28516 6.55768 3.31028 6.55768 4.57031C6.55768 5.8223 7.96668 6.85547 9.75051 6.85547C11.5563 6.85547 12.9433 5.80854 12.9433 4.57031C12.9433 3.31028 11.511 2.28516 9.75051 2.28516ZM9.75051 6.09883C8.57069 6.09883 7.61486 5.41244 7.61486 4.57031C7.61486 3.73029 8.57683 3.0418 9.75051 3.0418C10.9242 3.0418 11.8826 3.73029 11.8826 4.57031C11.8826 5.40015 10.949 6.09883 9.75051 6.09883Z" fill="#9B9B9B"/>
	</symbol>
</svg>
